<?xml version="1.0" standalone="no"?><!DOCTYPE svg PUBLIC "-//W3C//DTD SVG 1.1//EN" "http://www.w3.org/Graphics/SVG/1.1/DTD/svg11.dtd"><svg height="1024" node-id="1" sillyvg="true" template-height="1024" template-width="1024" version="1.1" viewBox="0 0 1024 1024" width="1024" xmlns="http://www.w3.org/2000/svg" xmlns:xlink="http://www.w3.org/1999/xlink"><defs node-id="71"></defs><path d="M 390.30 366.90 L 395.10 362.60 L 408.00 348.20 L 421.20 335.40 L 426.20 331.10 L 431.60 327.00 L 437.20 323.10 L 443.30 319.50 L 451.60 315.30 L 460.30 311.60 L 469.30 308.40 L 478.50 305.80 L 487.80 303.80 L 497.00 302.50 L 510.90 301.70 L 524.30 302.50 L 536.70 304.70 L 549.60 308.50 L 561.90 313.60 L 567.90 316.60 L 573.40 319.90 L 578.50 323.50 L 583.90 327.90 L 588.80 332.60 L 593.40 337.70 L 597.80 343.10 L 608.20 357.50 L 613.40 359.00 L 615.40 362.10 L 616.70 365.30 L 617.70 368.70 L 619.40 379.00 L 621.30 385.90 L 625.30 394.70 L 635.70 415.40 L 642.30 426.20 L 649.70 445.50 L 655.70 457.40 L 688.80 516.60 L 701.70 540.60 L 714.20 564.80 L 727.20 590.90 L 733.30 604.10 L 739.00 617.50 L 745.50 635.80 L 748.40 645.10 L 751.10 655.90 L 753.20 667.00 L 756.40 689.20 L 772.50 689.00 L 788.50 689.60 L 811.70 690.80 L 834.90 692.50 L 897.60 698.40 L 906.20 699.60 L 910.10 700.60 L 913.10 701.80 L 913.50 703.20 L 912.00 709.20 L 907.80 722.70 L 905.10 733.20 L 902.00 742.80 L 902.10 745.90 L 904.90 755.30 L 904.90 756.70 L 904.50 758.00 L 903.40 759.30 L 895.20 760.20 L 887.00 760.60 L 887.30 778.00 L 886.80 795.40 L 868.50 795.50 L 869.30 812.90 L 871.00 830.90 L 871.10 836.90 L 870.80 838.40 L 870.00 839.80 L 868.40 841.60 L 869.00 862.60 L 880.40 863.10 L 923.90 863.00 L 926.60 863.30 L 928.10 863.90 L 929.30 864.80 L 929.50 865.50 L 927.00 866.20 L 923.50 866.20 L 260.50 865.30 L 203.80 865.70 L 177.50 866.90 L 161.10 867.00 L 145.50 868.50 L 119.90 869.10 L 101.90 870.80 L 92.80 870.80 L 91.90 870.00 L 91.60 869.00 L 93.80 868.00 L 104.00 867.40 L 127.20 865.50 L 169.70 863.70 L 168.90 848.10 L 166.10 848.00 L 163.50 847.20 L 162.80 845.60 L 162.00 839.60 L 162.00 823.50 L 155.80 821.90 L 154.90 812.40 L 154.10 793.70 L 147.90 793.40 L 145.10 791.90 L 141.40 783.30 L 134.60 765.70 L 150.50 764.30 L 166.60 763.40 L 334.30 755.30 L 338.70 755.20 L 343.00 755.60 L 344.40 726.10 L 344.30 706.00 L 343.90 696.50 L 331.50 702.00 L 324.50 704.50 L 317.00 706.80 L 309.40 708.80 L 301.70 710.20 L 296.60 710.90 L 286.90 711.30 L 282.20 711.00 L 277.80 710.30 L 273.80 709.30 L 270.10 707.70 L 266.50 705.80 L 263.20 703.40 L 260.20 700.50 L 257.70 697.40 L 255.60 693.90 L 253.90 690.00 L 252.70 685.90 L 251.80 681.50 L 251.20 672.40 L 252.00 660.40 L 254.80 646.10 L 258.50 632.70 L 264.30 616.40 L 273.30 595.80 L 288.20 565.60 L 299.80 543.60 L 311.80 521.90 L 370.40 420.20 L 376.10 408.60 L 385.40 393.70 L 386.80 390.70 L 387.90 386.90 L 389.40 370.80 L 390.30 366.90 Z" fill="#000000" fill-rule="nonzero" node-id="73" stroke="none" target-height="569.1" target-width="837.9" target-x="91.6" target-y="301.7"></path><path d="M 343.90 696.50 L 347.10 694.40 L 362.80 686.40 L 366.40 684.20 L 368.80 711.30 L 375.00 792.50 L 380.40 856.90 L 380.60 861.80 L 367.00 862.10 L 353.50 861.80 L 352.90 858.40 L 351.60 844.80 L 351.00 842.10 L 349.20 837.70 L 345.40 830.30 L 343.70 825.70 L 343.50 823.80 L 346.50 822.90 L 346.80 821.50 L 346.80 819.00 L 346.00 812.80 L 343.60 799.10 L 343.20 794.10 L 343.60 793.20 L 345.60 792.30 L 345.90 791.40 L 344.60 785.10 L 345.20 784.40 L 347.10 783.60 L 347.60 781.60 L 346.60 773.10 L 343.00 755.60 L 344.40 726.10 L 344.30 706.00 L 343.90 696.50 Z" fill="#fefefe" fill-rule="nonzero" node-id="75" stroke="none" target-height="177.89996" target-width="37.600006" target-x="343" target-y="684.2"></path><path d="M 365.00 437.30 L 375.20 441.90 L 396.30 450.10 L 404.20 453.90 L 427.50 466.00 L 423.80 477.60 L 418.10 492.40 L 407.10 519.00 L 395.60 545.40 L 383.90 571.70 L 366.90 608.30 L 351.10 639.20 L 346.00 647.50 L 344.70 650.30 L 345.00 651.60 L 346.00 652.50 L 348.00 650.70 L 349.80 648.20 L 355.40 638.60 L 362.10 625.50 L 384.70 578.60 L 403.80 570.40 L 413.60 566.80 L 443.40 557.30 L 462.40 619.90 L 465.60 630.00 L 467.30 632.80 L 468.30 633.10 L 471.00 629.50 L 493.50 587.70 L 498.30 579.60 L 500.30 576.80 L 501.20 576.00 L 502.90 578.40 L 507.40 586.20 L 525.60 611.40 L 534.10 624.50 L 536.40 626.90 L 537.40 627.50 L 538.20 627.20 L 539.30 625.50 L 540.70 621.20 L 544.40 607.00 L 559.10 558.10 L 595.80 573.10 L 614.40 579.90 L 620.20 596.70 L 640.40 651.60 L 643.00 659.50 L 643.80 661.40 L 645.20 663.50 L 647.10 664.10 L 647.90 663.40 L 648.00 662.20 L 647.30 658.90 L 641.80 645.20 L 631.50 618.00 L 621.60 590.60 L 585.00 477.40 L 583.40 471.70 L 582.30 466.10 L 592.30 461.30 L 612.70 452.70 L 633.60 445.40 L 644.20 442.20 L 649.90 453.40 L 703.20 551.40 L 718.80 581.90 L 730.80 607.80 L 739.10 629.00 L 742.80 639.80 L 745.90 650.80 L 748.70 662.20 L 751.00 673.80 L 751.90 679.70 L 752.40 685.50 L 752.20 688.00 L 751.60 688.80 L 745.50 689.30 L 726.70 689.00 L 725.10 692.90 L 724.10 696.90 L 721.70 709.10 L 720.40 713.00 L 718.80 713.30 L 715.20 713.10 L 705.60 711.50 L 693.90 708.80 L 672.10 702.80 L 666.30 700.80 L 647.80 691.20 L 643.20 689.40 L 641.60 697.70 L 640.40 708.40 L 639.00 728.40 L 631.20 813.90 L 628.20 850.70 L 626.70 861.90 L 481.80 861.60 L 403.10 861.80 L 384.30 861.50 L 384.10 853.70 L 381.00 822.10 L 371.10 693.70 L 370.20 685.30 L 369.40 681.30 L 366.60 681.10 L 364.00 682.00 L 350.90 689.10 L 340.10 694.30 L 329.10 699.00 L 321.50 701.70 L 313.90 704.00 L 299.80 706.90 L 293.20 707.70 L 284.40 707.80 L 280.10 707.30 L 275.90 706.30 L 271.80 704.70 L 267.90 702.50 L 264.50 699.90 L 261.70 696.90 L 259.50 693.70 L 257.70 690.10 L 256.30 686.30 L 255.30 682.20 L 254.40 673.10 L 254.90 662.80 L 256.00 655.80 L 257.50 648.40 L 259.60 640.70 L 263.30 629.20 L 267.70 617.50 L 277.80 594.70 L 288.20 573.80 L 312.80 527.40 L 328.90 498.80 L 345.60 470.50 L 359.90 445.40 L 365.00 437.30 Z" fill="#fefefe" fill-rule="nonzero" node-id="77" stroke="none" target-height="424.60004" target-width="498.00003" target-x="254.4" target-y="437.3"></path><path d="M 498.40 636.40 L 501.40 636.70 L 502.80 637.10 L 505.20 638.80 L 505.80 639.90 L 506.10 641.20 L 505.90 642.70 L 505.30 644.00 L 503.50 646.50 L 500.40 646.60 L 498.90 646.30 L 496.70 645.10 L 495.70 643.50 L 495.50 640.70 L 496.20 639.20 L 498.40 636.40 Z" fill="#000000" fill-rule="nonzero" node-id="79" stroke="none" target-height="10.199951" target-width="10.600006" target-x="495.5" target-y="636.4"></path><path d="M 498.80 671.80 L 500.80 671.20 L 502.80 671.50 L 504.60 672.50 L 505.80 674.20 L 506.30 676.10 L 506.00 678.10 L 505.30 679.30 L 503.90 680.70 L 501.80 681.50 L 499.80 681.40 L 498.10 680.50 L 496.60 678.80 L 496.00 676.70 L 496.30 674.70 L 497.30 673.00 L 498.80 671.80 Z" fill="#000000" fill-rule="nonzero" node-id="81" stroke="none" target-height="10.299988" target-width="10.299988" target-x="496" target-y="671.2"></path><path d="M 501.10 706.60 L 503.00 706.70 L 504.70 707.60 L 505.90 709.00 L 506.60 710.70 L 506.60 712.60 L 505.80 714.40 L 504.50 715.70 L 502.80 716.50 L 500.70 716.60 L 498.80 715.80 L 497.40 714.40 L 496.70 712.50 L 496.70 710.40 L 497.60 708.60 L 499.10 707.20 L 501.10 706.60 Z" fill="#000000" fill-rule="nonzero" node-id="83" stroke="none" target-height="10" target-width="9.899994" target-x="496.7" target-y="706.6"></path><path d="M 501.00 593.00 L 503.20 593.70 L 504.80 595.00 L 505.30 596.00 L 505.80 598.30 L 505.30 600.40 L 504.50 601.70 L 503.70 602.50 L 501.30 603.70 L 498.20 601.90 L 497.40 600.90 L 496.60 598.70 L 496.90 596.30 L 497.60 595.00 L 498.60 594.20 L 501.00 593.00 Z" fill="#000000" fill-rule="nonzero" node-id="85" stroke="none" target-height="10.700012" target-width="9.199982" target-x="496.6" target-y="593"></path><path d="M 518.30 356.00 L 521.60 360.50 L 533.60 380.50 L 539.60 389.10 L 546.00 397.40 L 536.60 392.50 L 531.70 390.90 L 530.40 391.50 L 529.60 392.60 L 530.10 393.70 L 533.60 396.50 L 539.20 399.30 L 545.10 401.50 L 549.50 402.40 L 558.30 409.80 L 567.60 416.50 L 568.00 423.80 L 568.90 430.90 L 571.30 445.00 L 569.50 447.40 L 569.30 450.20 L 571.10 456.50 L 572.50 459.70 L 574.20 462.60 L 576.30 465.20 L 578.70 467.30 L 577.40 472.20 L 575.40 478.40 L 572.80 484.40 L 569.60 490.20 L 566.00 495.80 L 562.10 501.20 L 557.70 506.20 L 553.00 511.00 L 548.10 515.30 L 539.60 521.40 L 529.00 527.50 L 528.60 554.40 L 520.40 560.90 L 501.00 574.80 L 481.70 560.90 L 475.50 555.90 L 474.70 539.20 L 474.50 522.50 L 467.80 519.30 L 461.60 515.70 L 455.80 511.70 L 450.40 507.20 L 446.40 503.30 L 442.60 499.10 L 439.20 494.60 L 436.00 489.80 L 433.10 484.60 L 430.60 478.80 L 429.80 476.00 L 429.50 473.20 L 429.70 470.20 L 430.40 467.00 L 433.40 464.80 L 436.40 460.80 L 439.50 453.50 L 441.70 446.30 L 431.10 440.20 L 434.80 421.40 L 435.40 416.70 L 435.50 411.10 L 441.10 409.90 L 446.90 408.10 L 453.10 405.60 L 459.10 402.80 L 471.50 395.90 L 480.50 389.90 L 489.30 383.30 L 497.70 376.40 L 505.30 369.50 L 512.40 362.50 L 518.30 356.00 Z" fill="#fefefe" fill-rule="nonzero" node-id="87" stroke="none" target-height="218.79999" target-width="149.20001" target-x="429.5" target-y="356"></path><path d="M 533.20 418.30 L 536.70 417.90 L 540.10 419.00 L 542.80 421.20 L 544.40 424.30 L 544.70 427.20 L 543.90 430.60 L 541.80 433.50 L 538.80 435.20 L 535.20 435.70 L 532.30 435.00 L 530.50 434.00 L 529.00 432.60 L 527.50 430.00 L 526.90 426.30 L 527.80 422.80 L 530.10 420.00 L 533.20 418.30 Z" fill="#000000" fill-rule="nonzero" node-id="89" stroke="none" target-height="17.800018" target-width="17.799988" target-x="526.9" target-y="417.9"></path><path d="M 533.20 423.30 L 535.10 423.40 L 536.80 424.20 L 537.20 426.20 L 536.80 428.30 L 534.00 426.90 L 533.20 425.20 L 533.20 423.30 Z" fill="#fefefe" fill-rule="nonzero" node-id="91" stroke="none" target-height="5" target-width="4" target-x="533.2" target-y="423.3"></path><path d="M 466.40 418.10 L 470.80 418.30 L 473.10 419.50 L 476.00 422.50 L 476.60 426.10 L 476.30 429.70 L 475.60 431.30 L 473.40 433.80 L 468.90 436.60 L 466.30 435.90 L 462.90 433.90 L 460.50 430.80 L 459.70 428.30 L 459.90 424.90 L 461.20 422.00 L 462.70 420.50 L 466.40 418.10 Z" fill="#000000" fill-rule="nonzero" node-id="93" stroke="none" target-height="18.5" target-width="16.899994" target-x="459.7" target-y="418.1"></path><path d="M 509.30 459.20 L 513.20 459.00 L 516.40 459.20 L 519.60 460.00 L 522.70 461.10 L 525.60 462.70 L 528.30 464.60 L 531.90 468.20 L 533.60 471.60 L 533.80 473.50 L 533.00 474.00 L 530.10 472.50 L 525.50 467.60 L 523.00 465.70 L 520.40 464.40 L 517.50 463.50 L 514.50 463.10 L 508.40 462.90 L 502.00 464.70 L 499.00 465.90 L 496.00 467.50 L 488.80 472.90 L 486.90 474.10 L 485.00 474.80 L 484.20 474.80 L 483.40 474.40 L 483.40 473.00 L 484.00 471.70 L 488.30 467.50 L 491.10 465.60 L 495.50 463.30 L 500.20 461.40 L 504.90 460.00 L 509.30 459.20 Z" fill="#000000" fill-rule="nonzero" node-id="95" stroke="none" target-height="15.799988" target-width="50.399994" target-x="483.4" target-y="459"></path><path d="M 502.00 409.30 L 504.70 409.90 L 505.10 410.60 L 505.10 412.50 L 501.20 433.70 L 501.40 436.30 L 502.00 438.40 L 502.90 440.00 L 504.70 442.10 L 512.00 446.70 L 513.30 448.50 L 512.30 450.10 L 509.80 449.70 L 505.70 448.20 L 503.70 446.90 L 500.40 443.80 L 499.10 442.00 L 498.00 439.70 L 497.30 437.20 L 497.00 434.40 L 497.10 430.30 L 498.70 421.40 L 502.00 409.30 Z" fill="#000000" fill-rule="nonzero" node-id="97" stroke="none" target-height="40.80002" target-width="16.299988" target-x="497" target-y="409.3"></path><path d="M 645.30 694.50 L 660.20 701.70 L 665.30 703.90 L 674.10 707.00 L 683.00 709.60 L 692.00 711.80 L 719.40 717.00 L 716.40 731.10 L 718.70 732.30 L 723.60 733.80 L 727.40 734.40 L 739.00 734.90 L 738.50 757.40 L 701.30 755.40 L 697.50 772.40 L 697.10 777.10 L 697.40 779.20 L 698.00 780.60 L 699.40 781.00 L 708.80 781.10 L 708.10 799.50 L 711.50 800.10 L 715.30 800.20 L 730.40 799.60 L 746.10 799.60 L 793.30 798.60 L 866.00 798.00 L 866.10 804.60 L 867.70 824.60 L 867.90 831.20 L 867.70 837.90 L 845.30 837.30 L 822.80 837.20 L 780.00 838.00 L 699.50 840.60 L 687.00 840.70 L 682.30 840.40 L 681.10 839.90 L 680.50 838.80 L 679.60 827.10 L 677.90 811.40 L 677.70 806.20 L 679.50 806.00 L 679.70 806.60 L 680.10 805.90 L 696.20 805.50 L 808.70 806.70 L 821.10 806.30 L 826.90 805.50 L 822.60 804.70 L 801.00 804.20 L 771.70 804.40 L 763.40 804.90 L 760.80 804.70 L 758.30 803.30 L 722.70 802.20 L 691.00 801.80 L 679.70 802.20 L 675.70 802.60 L 674.50 803.00 L 674.30 805.40 L 675.00 818.30 L 678.40 844.20 L 685.70 844.60 L 687.40 844.90 L 689.30 845.60 L 690.20 846.80 L 690.30 849.40 L 689.40 862.00 L 631.50 861.80 L 632.10 845.90 L 638.50 774.60 L 642.30 721.10 L 643.60 707.80 L 645.30 694.50 Z" fill="#fefefe" fill-rule="nonzero" node-id="99" stroke="none" target-height="167.5" target-width="236.40002" target-x="631.5" target-y="694.5"></path><path d="M 800.10 817.70 L 805.40 817.30 L 817.30 817.00 L 834.50 818.00 L 834.40 818.40 L 831.50 819.10 L 823.10 819.90 L 801.20 820.10 L 749.70 822.10 L 739.60 821.80 L 738.70 821.50 L 739.60 821.20 L 742.40 820.70 L 750.60 820.00 L 800.10 817.70 Z" fill="#000000" fill-rule="nonzero" node-id="101" stroke="none" target-height="5.0999756" target-width="95.79999" target-x="738.7" target-y="817"></path><path d="M 740.70 757.20 L 741.50 753.80 L 742.60 740.60 L 743.20 737.40 L 745.60 737.00 L 751.40 736.70 L 767.10 737.10 L 811.90 739.70 L 876.10 745.00 L 887.20 746.20 L 898.40 748.20 L 899.60 752.10 L 901.60 755.60 L 896.40 756.50 L 880.30 757.20 L 864.10 757.20 L 815.60 755.30 L 819.10 756.20 L 831.00 757.50 L 841.00 758.20 L 847.90 758.10 L 851.10 758.60 L 848.50 759.20 L 838.00 759.90 L 838.40 760.50 L 836.70 760.30 L 837.40 760.60 L 843.20 760.20 L 857.80 760.80 L 862.10 760.20 L 867.10 760.20 L 881.10 760.60 L 885.60 761.00 L 884.30 764.80 L 883.50 771.70 L 883.30 792.80 L 874.10 792.20 L 790.50 789.60 L 753.40 789.60 L 734.90 790.30 L 738.10 791.10 L 741.50 791.30 L 786.10 791.30 L 831.40 793.00 L 850.70 794.20 L 850.90 794.60 L 850.50 794.70 L 850.70 794.90 L 850.70 794.20 L 850.00 794.80 L 843.10 795.10 L 813.80 794.50 L 804.00 795.40 L 778.80 795.60 L 722.80 797.20 L 717.30 797.00 L 712.10 796.40 L 711.60 791.40 L 712.10 781.00 L 753.00 782.30 L 800.90 782.30 L 845.00 783.80 L 867.60 782.90 L 872.90 783.00 L 872.80 782.60 L 873.40 782.90 L 867.00 781.90 L 861.50 781.50 L 839.50 781.00 L 818.10 779.90 L 796.80 779.10 L 775.40 778.80 L 754.00 779.00 L 727.20 777.80 L 700.20 777.30 L 701.70 768.00 L 703.70 758.90 L 714.90 759.10 L 774.20 763.40 L 791.90 764.20 L 829.40 765.10 L 837.00 765.70 L 845.60 766.80 L 870.50 766.50 L 870.00 765.90 L 871.10 766.00 L 871.50 766.50 L 871.90 765.80 L 869.90 765.50 L 846.30 763.70 L 825.70 761.70 L 787.90 761.00 L 772.30 760.30 L 756.20 759.00 L 740.70 757.20 Z" fill="#fefefe" fill-rule="nonzero" node-id="103" stroke="none" target-height="60.5" target-width="201.39996" target-x="700.2" target-y="736.7"></path><path d="M 770.70 742.70 L 778.90 743.80 L 795.80 744.60 L 843.50 748.90 L 874.10 751.00 L 884.10 752.40 L 878.10 753.00 L 872.60 752.90 L 846.90 751.00 L 780.30 745.00 L 773.00 743.80 L 770.70 742.70 Z" fill="#000000" fill-rule="nonzero" node-id="105" stroke="none" target-height="10.299988" target-width="113.39996" target-x="770.7" target-y="742.7"></path><path d="M 793.20 772.30 L 813.40 772.30 L 863.10 773.70 L 879.40 774.70 L 880.70 774.90 L 880.30 775.50 L 867.20 775.50 L 827.90 774.20 L 810.00 773.90 L 796.40 773.20 L 792.70 772.70 L 793.20 772.30 Z" fill="#000000" fill-rule="nonzero" node-id="107" stroke="none" target-height="3.2000122" target-width="88" target-x="792.7" target-y="772.3"></path><path d="M 752.10 691.70 L 765.20 691.60 L 775.00 692.00 L 819.20 694.50 L 844.00 696.30 L 868.70 698.70 L 901.60 702.50 L 908.00 704.00 L 909.00 704.60 L 902.90 726.60 L 899.70 739.20 L 898.20 743.20 L 895.30 743.60 L 892.20 743.60 L 879.80 741.90 L 859.60 739.90 L 806.60 736.00 L 745.10 732.50 L 728.60 731.10 L 721.80 730.10 L 721.50 728.80 L 721.70 725.60 L 723.10 717.20 L 728.30 692.10 L 744.20 692.20 L 752.10 691.70 Z" fill="#fefefe" fill-rule="nonzero" node-id="109" stroke="none" target-height="52" target-width="187.5" target-x="721.5" target-y="691.6"></path><path d="M 772.10 711.20 L 777.40 710.80 L 783.00 710.90 L 808.10 712.10 L 850.30 715.20 L 866.60 715.90 L 870.70 716.80 L 871.40 718.40 L 862.30 718.50 L 853.80 718.20 L 819.90 715.40 L 778.00 712.80 L 774.30 712.30 L 773.10 712.00 L 772.10 711.20 Z" fill="#000000" fill-rule="nonzero" node-id="111" stroke="none" target-height="7.700012" target-width="99.30005" target-x="772.1" target-y="710.8"></path><path d="M 335.00 759.20 L 339.70 759.30 L 343.10 775.30 L 343.90 780.70 L 340.90 782.10 L 334.30 782.80 L 328.70 782.90 L 272.70 783.50 L 262.20 783.20 L 256.70 783.40 L 252.40 784.30 L 257.10 784.80 L 282.80 785.20 L 339.30 784.70 L 341.30 785.60 L 341.80 787.00 L 341.80 788.60 L 340.80 789.20 L 337.50 789.60 L 165.30 790.30 L 156.40 790.20 L 147.70 789.60 L 139.90 768.80 L 161.30 767.10 L 222.70 764.00 L 335.00 759.20 Z" fill="#fefefe" fill-rule="nonzero" node-id="113" stroke="none" target-height="31.099976" target-width="204" target-x="139.9" target-y="759.2"></path><path d="M 239.40 774.70 L 279.50 774.30 L 288.70 774.50 L 293.10 775.10 L 292.90 775.50 L 281.00 776.10 L 250.40 776.30 L 240.50 776.00 L 239.80 775.90 L 239.40 774.70 Z" fill="#000000" fill-rule="nonzero" node-id="115" stroke="none" target-height="2" target-width="53.700012" target-x="239.4" target-y="774.3"></path><path d="M 326.90 792.80 L 339.40 792.60 L 339.90 799.50 L 343.20 820.40 L 307.00 820.90 L 215.30 819.50 L 158.40 819.50 L 157.50 811.10 L 157.30 793.90 L 191.60 793.60 L 281.80 793.70 L 326.90 792.80 Z" fill="#fefefe" fill-rule="nonzero" node-id="117" stroke="none" target-height="28.300049" target-width="185.90001" target-x="157.3" target-y="792.6"></path><path d="M 200.50 805.70 L 216.40 805.20 L 248.30 806.20 L 286.90 805.90 L 289.30 806.00 L 291.60 806.50 L 291.40 807.10 L 290.10 807.40 L 267.50 808.40 L 255.40 808.40 L 219.20 807.60 L 200.80 807.70 L 200.20 807.00 L 200.50 805.70 Z" fill="#000000" fill-rule="nonzero" node-id="119" stroke="none" target-height="3.2000122" target-width="91.40001" target-x="200.2" target-y="805.2"></path><path d="M 169.70 823.30 L 182.20 822.80 L 207.50 822.70 L 237.80 823.60 L 312.80 823.50 L 337.70 823.80 L 340.40 827.10 L 341.50 829.20 L 342.40 831.60 L 342.60 833.80 L 334.30 834.20 L 293.70 834.50 L 287.40 835.10 L 287.60 835.60 L 290.70 836.40 L 297.00 836.90 L 306.50 836.20 L 318.70 835.90 L 343.30 836.40 L 348.30 843.50 L 341.60 843.70 L 261.40 843.60 L 165.70 844.70 L 165.40 830.80 L 165.90 823.90 L 167.80 823.30 L 169.70 823.30 Z" fill="#fefefe" fill-rule="nonzero" node-id="121" stroke="none" target-height="22" target-width="182.9" target-x="165.4" target-y="822.7"></path><path d="M 199.80 831.70 L 201.00 831.70 L 202.20 832.30 L 202.80 833.40 L 202.20 834.30 L 197.40 835.20 L 191.30 835.40 L 178.00 834.80 L 177.20 833.90 L 176.80 832.80 L 179.80 832.10 L 184.90 831.70 L 199.80 831.70 Z" fill="#000000" fill-rule="nonzero" node-id="123" stroke="none" target-height="3.7000122" target-width="26" target-x="176.8" target-y="831.7"></path><path d="M 809.90 840.80 L 828.40 840.20 L 865.70 841.20 L 866.30 862.20 L 849.20 862.50 L 722.50 862.00 L 693.80 862.10 L 693.40 857.80 L 693.30 849.90 L 694.20 845.40 L 695.10 843.80 L 697.70 843.50 L 726.00 843.20 L 809.90 840.80 Z" fill="#fefefe" fill-rule="nonzero" node-id="125" stroke="none" target-height="22.299988" target-width="173" target-x="693.3" target-y="840.2"></path><path d="M 789.80 848.70 L 839.90 848.20 L 848.90 848.60 L 853.10 849.40 L 853.10 849.90 L 844.70 850.90 L 841.10 850.60 L 821.70 851.20 L 794.20 851.30 L 783.20 850.90 L 777.30 849.90 L 779.60 849.00 L 783.20 848.70 L 789.80 848.70 Z" fill="#000000" fill-rule="nonzero" node-id="127" stroke="none" target-height="3.0999756" target-width="75.79999" target-x="777.3" target-y="848.2"></path><path d="M 570.30 341.30 L 575.00 343.30 L 581.50 348.00 L 585.50 351.50 L 593.00 359.60 L 599.30 367.90 L 601.80 371.90 L 604.10 376.90 L 606.30 385.00 L 607.50 386.60 L 608.70 386.80 L 609.80 385.20 L 609.90 384.10 L 607.80 374.80 L 608.50 370.70 L 607.90 366.80 L 608.20 364.20 L 608.70 363.10 L 609.80 362.00 L 611.30 362.30 L 612.20 363.60 L 613.90 368.30 L 615.80 378.70 L 617.10 391.50 L 619.00 416.40 L 620.20 425.20 L 604.80 430.50 L 587.80 438.00 L 583.80 439.40 L 581.50 439.50 L 579.50 437.90 L 578.40 436.30 L 576.10 431.00 L 574.40 423.00 L 572.60 405.00 L 570.20 388.80 L 558.70 377.60 L 553.00 371.50 L 549.70 366.80 L 548.50 363.30 L 548.60 362.40 L 549.30 360.50 L 551.10 359.70 L 552.90 359.60 L 556.80 360.70 L 559.70 362.30 L 562.80 364.50 L 568.50 369.80 L 573.40 375.60 L 576.70 380.50 L 581.20 392.10 L 583.00 394.20 L 584.00 394.00 L 584.60 392.30 L 584.60 390.50 L 583.70 387.10 L 580.90 380.30 L 579.00 377.00 L 575.80 372.30 L 572.30 368.10 L 561.30 357.70 L 557.70 353.20 L 557.00 351.50 L 558.60 350.30 L 560.50 350.10 L 564.10 351.40 L 570.30 355.50 L 575.00 359.50 L 579.50 364.00 L 583.70 368.80 L 586.20 372.30 L 590.00 378.70 L 591.90 383.80 L 593.30 389.10 L 594.10 389.60 L 595.70 389.00 L 596.20 388.30 L 594.70 381.00 L 593.30 377.50 L 590.80 372.50 L 587.60 367.60 L 584.00 363.00 L 576.00 354.70 L 570.40 349.50 L 569.00 348.00 L 567.90 346.20 L 567.40 344.10 L 568.60 342.50 L 570.30 341.30 Z" fill="#fefefe" fill-rule="nonzero" node-id="129" stroke="none" target-height="98.20001" target-width="71.70001" target-x="548.5" target-y="341.3"></path><path d="M 329.10 846.80 L 331.90 846.40 L 343.80 846.70 L 346.60 846.50 L 348.40 854.00 L 349.40 861.70 L 335.30 862.10 L 292.80 861.60 L 241.70 861.80 L 190.60 862.60 L 179.40 863.60 L 175.10 863.30 L 173.70 862.70 L 172.80 861.00 L 172.30 858.50 L 171.70 848.10 L 180.10 847.50 L 189.60 847.40 L 263.80 847.30 L 281.00 846.90 L 320.20 847.10 L 329.10 846.80 Z" fill="#fefefe" fill-rule="nonzero" node-id="131" stroke="none" target-height="17.199951" target-width="177.7" target-x="171.7" target-y="846.4"></path><path d="M 193.10 851.80 L 212.60 851.40 L 219.20 851.70 L 221.70 852.20 L 223.00 852.70 L 222.70 853.20 L 220.80 854.30 L 218.50 854.90 L 187.30 855.50 L 179.10 855.30 L 178.40 854.60 L 178.50 853.50 L 180.80 852.30 L 193.10 851.80 Z" fill="#000000" fill-rule="nonzero" node-id="133" stroke="none" target-height="4.0999756" target-width="44.600006" target-x="178.4" target-y="851.4"></path><path d="M 432.80 340.50 L 435.20 340.80 L 435.70 341.60 L 434.20 344.30 L 430.50 347.70 L 423.80 353.10 L 420.00 357.10 L 412.00 366.40 L 408.40 371.30 L 405.10 376.30 L 402.50 381.20 L 401.10 384.80 L 397.70 396.50 L 397.40 398.80 L 397.90 400.90 L 399.30 400.00 L 400.20 398.60 L 402.50 393.20 L 406.30 382.90 L 408.90 378.20 L 412.20 373.10 L 420.10 363.10 L 424.60 358.40 L 429.20 354.20 L 433.90 350.40 L 438.50 347.50 L 440.90 346.40 L 443.60 346.50 L 444.40 347.50 L 444.70 348.80 L 443.40 350.90 L 441.50 353.00 L 428.40 363.60 L 422.10 370.10 L 419.70 373.30 L 417.70 376.80 L 416.00 380.80 L 414.60 385.20 L 411.40 398.60 L 411.70 401.40 L 412.60 402.60 L 413.20 402.40 L 415.50 395.60 L 419.50 381.50 L 421.10 378.10 L 423.20 375.00 L 430.50 367.60 L 437.30 362.20 L 440.50 360.10 L 442.80 359.00 L 446.10 358.10 L 447.90 358.30 L 449.40 359.30 L 449.60 360.00 L 449.50 362.20 L 447.10 366.40 L 441.60 373.00 L 430.00 385.70 L 427.50 390.10 L 425.40 397.60 L 424.20 408.10 L 424.00 413.50 L 424.10 432.40 L 421.70 435.10 L 404.40 427.90 L 389.50 422.90 L 389.90 419.10 L 394.60 393.10 L 396.20 385.90 L 398.30 378.70 L 401.30 371.60 L 406.90 362.30 L 410.90 357.10 L 415.20 352.40 L 419.50 348.50 L 422.60 346.20 L 432.80 340.50 Z" fill="#fefefe" fill-rule="nonzero" node-id="135" stroke="none" target-height="94.600006" target-width="60.100006" target-x="389.5" target-y="340.5"></path><path d="M 413.80 510.30 L 419.40 516.10 L 424.60 520.50 L 431.10 524.50 L 437.90 527.90 L 444.90 530.90 L 452.00 533.30 L 468.70 537.00 L 471.10 537.80 L 472.10 538.50 L 471.70 542.90 L 465.90 544.80 L 448.80 551.70 L 401.80 567.40 L 387.10 573.20 L 407.40 526.10 L 413.80 510.30 Z" fill="#fefefe" fill-rule="nonzero" node-id="137" stroke="none" target-height="62.900024" target-width="85" target-x="387.1" target-y="510.3"></path><path d="M 592.70 514.30 L 594.70 518.70 L 597.40 526.40 L 604.60 549.50 L 613.60 575.80 L 598.50 570.60 L 568.80 558.40 L 548.90 549.40 L 540.00 544.70 L 537.10 544.00 L 533.10 544.20 L 532.70 543.30 L 532.40 540.90 L 533.20 540.60 L 534.80 540.20 L 546.40 539.60 L 552.50 538.30 L 559.10 536.40 L 565.50 534.00 L 571.90 531.10 L 576.10 528.90 L 583.60 523.80 L 587.00 520.80 L 590.00 517.70 L 592.70 514.30 Z" fill="#fefefe" fill-rule="nonzero" node-id="139" stroke="none" target-height="61.5" target-width="81.19995" target-x="532.4" target-y="514.3"></path><path d="M 469.50 546.90 L 471.10 547.70 L 472.00 551.20 L 471.50 552.90 L 469.30 554.10 L 469.20 554.90 L 473.00 558.40 L 478.80 562.90 L 496.60 575.20 L 492.70 582.70 L 468.30 626.50 L 452.30 574.90 L 449.20 565.70 L 447.70 561.00 L 446.80 556.30 L 458.70 550.90 L 469.50 546.90 Z" fill="#fefefe" fill-rule="nonzero" node-id="141" stroke="none" target-height="79.599976" target-width="49.80002" target-x="446.8" target-y="546.9"></path><path d="M 532.70 546.10 L 544.70 550.90 L 556.40 556.50 L 536.60 621.20 L 518.10 594.30 L 503.90 575.90 L 525.40 561.10 L 535.10 553.30 L 536.30 551.90 L 535.90 551.40 L 532.30 550.80 L 532.70 546.10 Z" fill="#fefefe" fill-rule="nonzero" node-id="143" stroke="none" target-height="75.10004" target-width="52.50003" target-x="503.9" target-y="546.1"></path><path d="M 374.10 420.90 L 386.00 424.30 L 399.60 429.30 L 413.60 435.30 L 426.80 441.60 L 438.20 447.50 L 435.00 455.60 L 433.20 459.40 L 430.90 463.20 L 428.70 462.90 L 412.40 454.20 L 400.40 448.50 L 388.20 443.10 L 367.20 434.70 L 374.10 420.90 Z" fill="#fefefe" fill-rule="nonzero" node-id="145" stroke="none" target-height="42.30002" target-width="71" target-x="367.2" target-y="420.9"></path><path d="M 634.60 424.10 L 637.40 424.20 L 639.10 426.00 L 641.60 430.90 L 644.10 438.60 L 623.30 445.20 L 612.40 449.10 L 601.70 453.50 L 591.20 458.20 L 580.80 463.30 L 579.40 463.60 L 578.10 463.50 L 576.60 461.60 L 574.20 456.60 L 571.60 448.90 L 600.30 435.90 L 610.00 431.90 L 626.70 427.10 L 630.80 425.80 L 634.60 424.10 Z" fill="#fefefe" fill-rule="nonzero" node-id="147" stroke="none" target-height="39.5" target-width="72.5" target-x="571.6" target-y="424.1"></path><path d="M 395.00 367.20 L 397.00 368.40 L 397.10 370.60 L 395.60 376.10 L 392.00 384.60 L 391.70 383.90 L 391.60 381.30 L 392.40 373.70 L 393.00 371.00 L 395.00 367.20 Z" fill="#fefefe" fill-rule="nonzero" node-id="149" stroke="none" target-height="17.399994" target-width="5.5" target-x="391.6" target-y="367.2"></path><path d="M 258.80 242.90 L 270.10 242.80 L 277.50 243.70 L 284.90 245.30 L 292.00 247.60 L 298.90 250.60 L 305.50 254.30 L 311.60 258.60 L 317.30 263.50 L 322.50 268.90 L 327.20 274.80 L 331.20 281.10 L 334.70 287.80 L 337.40 294.80 L 339.40 302.10 L 340.80 309.50 L 341.30 317.00 L 341.20 324.50 L 340.30 331.90 L 338.70 339.30 L 336.40 346.40 L 333.30 353.30 L 329.70 359.90 L 325.40 366.00 L 320.50 371.70 L 315.00 376.90 L 309.10 381.60 L 302.80 385.60 L 296.10 389.00 L 289.10 391.80 L 281.90 393.80 L 274.50 395.10 L 267.00 395.70 L 259.50 395.50 L 252.00 394.60 L 244.70 393.00 L 237.60 390.70 L 230.70 387.70 L 224.10 384.00 L 218.00 379.70 L 212.30 374.80 L 207.10 369.40 L 202.50 363.50 L 198.40 357.20 L 195.00 350.50 L 192.30 343.50 L 190.20 336.30 L 188.90 328.90 L 188.30 321.40 L 188.50 313.90 L 190.10 302.80 L 192.10 295.50 L 194.70 288.50 L 198.10 281.80 L 202.10 275.40 L 206.60 269.50 L 211.80 264.00 L 217.40 259.10 L 223.60 254.70 L 230.10 251.00 L 236.90 247.90 L 244.00 245.50 L 251.30 243.80 L 258.80 242.90 Z" fill="#000000" fill-rule="nonzero" node-id="151" stroke="none" target-height="152.90001" target-width="152.99998" target-x="188.3" target-y="242.8"></path><path d="M 256.50 247.70 L 263.60 247.20 L 270.60 247.40 L 277.70 248.40 L 284.60 250.00 L 291.30 252.20 L 297.70 255.20 L 303.80 258.70 L 309.60 262.80 L 314.90 267.50 L 319.70 272.70 L 324.00 278.30 L 327.80 284.30 L 330.90 290.70 L 333.40 297.30 L 335.90 307.60 L 336.70 314.60 L 336.80 321.70 L 336.20 328.80 L 334.90 335.70 L 332.90 342.50 L 330.30 349.10 L 327.10 355.40 L 323.20 361.40 L 318.80 366.90 L 313.90 372.00 L 308.50 376.50 L 302.70 380.60 L 296.50 384.00 L 290.00 386.80 L 283.20 388.90 L 276.30 390.40 L 269.30 391.20 L 262.20 391.30 L 255.20 390.70 L 248.20 389.40 L 241.40 387.50 L 234.80 384.80 L 228.60 381.60 L 222.60 377.80 L 217.10 373.40 L 212.00 368.40 L 207.50 363.00 L 203.50 357.20 L 200.00 351.00 L 197.20 344.50 L 195.10 337.80 L 193.60 330.90 L 192.80 323.90 L 192.70 316.80 L 193.30 309.80 L 194.60 302.80 L 196.50 296.00 L 199.10 289.50 L 202.30 283.20 L 206.20 277.20 L 213.00 269.10 L 218.10 264.30 L 223.70 260.00 L 229.70 256.20 L 236.10 253.10 L 242.70 250.60 L 249.50 248.80 L 256.50 247.70 Z" fill="#fefefe" fill-rule="nonzero" node-id="153" stroke="none" target-height="144.09999" target-width="144.09999" target-x="192.7" target-y="247.2"></path><path d="M 258.90 251.80 L 265.60 251.50 L 272.20 252.00 L 278.80 253.00 L 285.20 254.80 L 291.50 257.10 L 297.50 260.00 L 303.10 263.50 L 308.40 267.60 L 313.30 272.10 L 317.70 277.10 L 321.60 282.50 L 324.90 288.30 L 327.70 294.30 L 329.90 300.60 L 331.40 307.10 L 332.30 313.70 L 332.60 320.40 L 332.20 327.00 L 331.10 333.60 L 329.50 340.00 L 327.20 346.30 L 324.30 352.30 L 320.80 358.00 L 316.80 363.30 L 312.20 368.20 L 307.30 372.60 L 301.90 376.50 L 296.20 379.90 L 290.10 382.70 L 283.80 384.90 L 277.30 386.50 L 270.80 387.40 L 264.10 387.70 L 257.40 387.30 L 250.70 386.30 L 244.30 384.60 L 238.00 382.30 L 231.90 379.40 L 226.20 375.90 L 220.90 371.90 L 215.90 367.30 L 211.50 362.30 L 207.50 356.90 L 204.10 351.10 L 201.30 345.00 L 199.10 338.70 L 197.60 332.20 L 196.70 325.50 L 196.40 318.80 L 196.80 312.20 L 197.90 305.50 L 199.60 299.10 L 201.90 292.80 L 204.90 286.70 L 208.40 281.00 L 212.50 275.70 L 217.00 270.80 L 222.10 266.40 L 227.50 262.50 L 233.30 259.10 L 239.40 256.30 L 245.70 254.20 L 252.30 252.60 L 258.90 251.80 Z" fill="#000000" fill-rule="nonzero" node-id="155" stroke="none" target-height="136.20001" target-width="136.20001" target-x="196.4" target-y="251.5"></path><path d="M 272.10 256.40 L 278.20 257.40 L 284.20 259.10 L 290.00 261.30 L 295.60 264.00 L 300.90 267.30 L 305.80 271.10 L 310.30 275.40 L 314.40 280.00 L 318.00 285.10 L 321.10 290.50 L 323.70 296.10 L 325.70 302.00 L 327.20 308.00 L 328.00 314.20 L 328.20 320.40 L 327.90 326.60 L 326.90 332.80 L 325.30 338.80 L 323.20 344.60 L 320.50 350.20 L 317.20 355.50 L 313.50 360.50 L 309.30 365.00 L 304.70 369.20 L 299.70 372.90 L 294.30 376.00 L 288.70 378.70 L 282.80 380.80 L 276.80 382.30 L 270.60 383.20 L 264.40 383.50 L 258.20 383.20 L 252.00 382.20 L 245.90 380.70 L 240.00 378.60 L 234.30 375.90 L 228.90 372.60 L 223.80 368.80 L 219.20 364.60 L 215.00 359.90 L 211.20 354.80 L 208.00 349.40 L 205.40 343.70 L 203.30 337.70 L 201.80 331.60 L 200.90 325.30 L 200.70 319.00 L 201.10 312.80 L 202.10 306.50 L 203.70 300.40 L 205.90 294.50 L 208.60 288.90 L 212.00 283.50 L 215.80 278.50 L 220.10 273.90 L 224.80 269.70 L 229.90 266.10 L 235.40 262.90 L 241.10 260.30 L 247.10 258.30 L 253.30 256.90 L 259.50 256.10 L 265.80 255.90 L 272.10 256.40 Z" fill="#fefefe" fill-rule="nonzero" node-id="157" stroke="none" target-height="127.600006" target-width="127.500015" target-x="200.7" target-y="255.9"></path><path d="M 259.80 267.40 L 262.00 268.10 L 262.80 269.00 L 264.90 294.30 L 266.60 322.30 L 275.20 320.50 L 279.80 319.90 L 281.80 320.00 L 283.10 320.40 L 283.30 321.30 L 283.10 322.10 L 281.20 323.70 L 269.40 326.70 L 262.30 328.00 L 259.70 328.00 L 257.40 327.00 L 257.50 325.90 L 258.70 325.00 L 263.10 323.20 L 262.40 313.10 L 259.10 282.20 L 259.10 271.40 L 259.80 267.40 Z" fill="#000000" fill-rule="nonzero" node-id="159" stroke="none" target-height="60.600006" target-width="25.899994" target-x="257.4" target-y="267.4"></path><path d="M 316.10 305.60 L 317.60 306.10 L 318.90 306.90 L 318.50 308.00 L 316.80 309.30 L 313.20 310.60 L 311.20 311.00 L 309.40 310.60 L 308.00 309.70 L 308.10 309.00 L 310.00 307.20 L 311.90 306.40 L 316.10 305.60 Z" fill="#000000" fill-rule="nonzero" node-id="161" stroke="none" target-height="5.399994" target-width="10.899994" target-x="308" target-y="305.6"></path><path d="M 266.10 359.20 L 268.70 359.60 L 269.50 360.90 L 270.10 364.20 L 270.20 369.30 L 267.80 368.90 L 266.50 367.70 L 266.00 366.60 L 265.70 365.20 L 265.70 362.00 L 266.10 359.20 Z" fill="#000000" fill-rule="nonzero" node-id="163" stroke="none" target-height="10.099976" target-width="4.5" target-x="265.7" target-y="359.2"></path><path d="M 213.00 318.60 L 214.70 319.10 L 215.90 320.10 L 215.60 321.20 L 213.20 322.70 L 210.30 323.50 L 208.90 323.00 L 207.80 322.10 L 208.20 320.80 L 209.30 319.90 L 213.00 318.60 Z" fill="#000000" fill-rule="nonzero" node-id="165" stroke="none" target-height="4.899994" target-width="8.099991" target-x="207.8" target-y="318.6"></path><path d="M 480.10 180.90 L 482.20 181.10 L 483.20 181.50 L 483.90 182.30 L 484.80 185.80 L 485.50 193.60 L 486.30 197.90 L 489.10 207.30 L 491.10 212.00 L 493.40 216.50 L 496.10 220.70 L 500.20 225.50 L 504.40 228.80 L 508.40 230.40 L 511.60 230.80 L 514.80 230.70 L 527.90 228.50 L 529.20 229.00 L 530.10 230.00 L 521.00 237.30 L 518.10 240.00 L 515.50 242.90 L 513.40 246.10 L 510.70 252.10 L 508.30 261.20 L 507.50 266.90 L 507.30 272.50 L 507.50 277.20 L 509.20 285.10 L 509.30 289.00 L 508.30 290.10 L 507.00 290.60 L 505.70 289.50 L 503.40 285.70 L 500.90 279.60 L 497.70 274.80 L 494.60 270.90 L 491.50 268.00 L 488.10 265.40 L 484.80 263.50 L 481.40 262.10 L 474.60 260.70 L 471.30 260.60 L 466.30 261.00 L 457.10 263.10 L 444.40 266.80 L 442.00 266.60 L 441.80 265.80 L 444.50 261.90 L 451.70 254.80 L 456.10 249.50 L 460.20 243.60 L 464.00 237.50 L 467.00 231.40 L 473.60 215.20 L 477.00 204.00 L 478.30 196.10 L 478.50 184.40 L 478.90 182.60 L 480.10 180.90 Z M 453.00 260.10 L 459.10 258.60 L 469.50 257.20 L 477.80 257.50 L 481.80 258.30 L 485.80 259.60 L 489.60 261.50 L 494.40 264.60 L 498.50 268.80 L 502.40 273.20 L 503.20 263.50 L 504.00 258.50 L 505.20 253.60 L 506.80 248.80 L 508.90 244.40 L 510.60 241.60 L 512.60 239.10 L 516.10 235.70 L 515.90 235.20 L 512.40 235.30 L 509.20 234.90 L 503.10 233.00 L 500.30 231.50 L 497.90 229.70 L 495.40 227.30 L 493.10 224.50 L 489.20 218.40 L 486.20 212.00 L 483.60 204.30 L 481.90 201.30 L 477.80 216.90 L 475.10 224.60 L 471.90 232.20 L 469.50 237.10 L 463.90 246.20 L 453.00 260.10 Z" fill="#000000" fill-rule="nonzero" node-id="167" stroke="none" target-height="109.70001" target-width="88.29999" target-x="441.8" target-y="180.9"></path><path d="M 673.10 338.40 L 673.70 328.20 L 672.80 315.90 L 673.10 312.90 L 673.80 310.10 L 674.50 309.90 L 675.90 310.80 L 677.70 313.80 L 679.90 320.30 L 683.10 332.30 L 685.10 336.70 L 689.40 344.00 L 692.10 347.10 L 694.10 348.90 L 699.10 351.70 L 703.80 353.00 L 709.40 352.90 L 723.00 349.80 L 725.50 350.20 L 726.50 350.80 L 726.40 351.90 L 724.20 353.80 L 715.60 358.10 L 712.40 360.40 L 709.80 363.00 L 707.70 366.10 L 705.90 369.40 L 703.40 376.60 L 702.30 382.20 L 701.70 387.70 L 701.30 395.00 L 702.30 405.10 L 702.10 407.60 L 701.50 409.70 L 700.20 410.30 L 698.80 410.30 L 696.20 406.50 L 693.00 397.80 L 691.20 394.00 L 689.20 390.40 L 686.80 387.10 L 684.00 384.10 L 681.00 381.50 L 677.60 379.40 L 674.90 378.10 L 669.00 376.60 L 665.70 376.30 L 653.80 376.90 L 650.90 376.60 L 648.50 375.80 L 648.20 374.90 L 650.60 373.00 L 658.40 367.80 L 661.70 365.10 L 664.40 362.40 L 666.50 359.60 L 669.80 353.20 L 670.90 349.80 L 672.20 344.40 L 673.10 338.40 Z M 696.90 394.00 L 697.30 382.70 L 698.10 377.30 L 700.00 370.20 L 703.10 363.60 L 705.10 360.80 L 708.90 356.60 L 705.90 356.90 L 700.50 356.40 L 694.80 354.30 L 692.10 352.70 L 689.70 350.90 L 686.50 347.70 L 683.60 344.10 L 679.10 336.00 L 678.80 333.70 L 678.40 333.70 L 677.10 345.60 L 676.00 350.00 L 674.50 354.10 L 672.60 357.90 L 667.60 365.00 L 661.00 371.40 L 661.30 371.60 L 662.60 371.40 L 664.00 371.50 L 672.90 373.00 L 676.50 374.10 L 679.80 375.60 L 682.80 377.50 L 688.20 382.20 L 693.90 389.40 L 696.90 394.00 Z" fill="#000000" fill-rule="nonzero" node-id="169" stroke="none" target-height="100.399994" target-width="78.29999" target-x="648.2" target-y="309.9"></path><path d="M 559.60 143.40 L 562.60 144.10 L 563.40 147.90 L 563.80 156.90 L 564.30 160.30 L 566.40 167.00 L 567.90 170.20 L 569.80 173.10 L 573.90 177.40 L 578.40 180.00 L 580.90 180.80 L 588.80 181.60 L 590.70 182.10 L 592.10 182.80 L 592.00 183.70 L 589.10 185.50 L 581.30 188.70 L 578.60 190.10 L 575.70 192.30 L 573.40 194.60 L 571.60 197.10 L 570.10 199.70 L 568.50 204.00 L 567.40 208.50 L 566.40 217.80 L 565.50 219.30 L 564.10 220.20 L 562.70 218.60 L 562.00 216.90 L 559.00 204.00 L 558.20 201.90 L 556.10 198.90 L 553.50 196.60 L 549.20 193.70 L 542.80 191.30 L 537.10 189.60 L 536.80 189.20 L 536.60 188.70 L 538.30 186.80 L 548.60 177.20 L 552.30 171.70 L 553.60 168.70 L 555.20 163.90 L 556.30 159.00 L 557.80 147.50 L 558.70 144.90 L 559.60 143.40 Z M 545.20 187.00 L 551.60 190.20 L 556.20 193.20 L 560.00 197.20 L 563.70 203.60 L 567.30 196.10 L 569.30 192.90 L 573.60 188.30 L 578.50 185.10 L 573.00 182.80 L 568.80 179.40 L 565.30 174.60 L 561.90 166.30 L 560.10 163.20 L 556.50 172.10 L 554.40 176.20 L 549.90 182.60 L 545.20 187.00 Z" fill="#000000" fill-rule="nonzero" node-id="171" stroke="none" target-height="76.8" target-width="55.5" target-x="536.6" target-y="143.4"></path><path d="M 322.30 169.10 L 324.00 169.90 L 330.20 174.80 L 344.60 189.10 L 352.80 198.30 L 360.60 207.90 L 368.00 217.80 L 374.80 228.10 L 381.20 238.60 L 387.20 249.50 L 392.60 260.60 L 396.80 270.20 L 398.60 275.10 L 399.90 280.10 L 399.90 282.30 L 398.90 284.20 L 397.00 282.90 L 395.50 280.40 L 391.80 269.80 L 386.00 256.50 L 382.70 249.90 L 373.30 233.50 L 367.00 223.80 L 360.30 214.40 L 353.20 205.30 L 345.70 196.50 L 337.80 188.10 L 329.50 180.00 L 320.80 172.20 L 321.20 170.60 L 322.30 169.10 Z" fill="#000000" fill-rule="nonzero" node-id="173" stroke="none" target-height="115.100006" target-width="79.100006" target-x="320.8" target-y="169.1"></path><path d="M 682.30 219.20 L 684.30 220.10 L 685.10 221.30 L 683.40 223.70 L 674.70 231.20 L 661.60 243.90 L 655.40 250.50 L 649.60 257.60 L 642.30 267.50 L 635.60 277.70 L 629.50 288.30 L 623.90 299.20 L 618.10 313.10 L 615.70 317.80 L 613.60 317.30 L 612.60 315.70 L 614.20 310.40 L 622.60 292.00 L 626.70 284.30 L 635.70 269.70 L 642.40 260.40 L 649.50 251.40 L 657.10 242.80 L 665.10 234.60 L 673.50 226.70 L 682.30 219.20 Z" fill="#000000" fill-rule="nonzero" node-id="175" stroke="none" target-height="98.59999" target-width="72.5" target-x="612.6" target-y="219.2"></path><path d="M 293.50 471.30 L 295.50 472.00 L 296.10 473.10 L 294.90 475.90 L 283.60 493.80 L 267.50 521.70 L 259.90 535.90 L 252.80 550.50 L 250.70 549.50 L 250.10 548.30 L 252.40 542.20 L 255.10 536.20 L 261.50 524.40 L 280.20 491.80 L 286.70 481.30 L 293.50 471.30 Z" fill="#000000" fill-rule="nonzero" node-id="177" stroke="none" target-height="79.20001" target-width="46" target-x="250.1" target-y="471.3"></path><path d="M 354.20 183.70 L 356.10 184.10 L 357.60 185.20 L 360.60 188.20 L 367.80 197.00 L 376.50 208.70 L 385.60 221.50 L 397.10 239.20 L 401.50 247.30 L 402.20 249.20 L 401.90 250.80 L 400.70 252.00 L 400.10 251.80 L 399.00 250.90 L 397.50 249.00 L 384.50 226.70 L 379.30 218.90 L 373.80 211.20 L 353.20 186.30 L 354.20 183.70 Z" fill="#000000" fill-rule="nonzero" node-id="179" stroke="none" target-height="68.3" target-width="49" target-x="353.2" target-y="183.7"></path><path d="M 652.90 227.40 L 654.20 227.40 L 655.50 227.90 L 656.30 228.90 L 655.70 230.00 L 650.10 235.60 L 642.90 243.90 L 631.40 258.90 L 622.60 272.30 L 618.80 279.20 L 614.10 289.20 L 611.80 293.40 L 609.70 292.50 L 609.20 291.60 L 609.10 290.50 L 609.40 288.60 L 610.10 286.60 L 612.10 282.60 L 619.60 269.80 L 625.40 260.60 L 631.60 251.70 L 638.20 243.20 L 642.90 237.70 L 652.90 227.40 Z" fill="#000000" fill-rule="nonzero" node-id="181" stroke="none" target-height="66" target-width="47.200012" target-x="609.1" target-y="227.4"></path><path d="M 711.60 463.70 L 713.70 464.70 L 715.10 466.50 L 730.30 491.10 L 741.30 510.00 L 743.20 514.30 L 742.90 516.30 L 740.30 515.80 L 722.80 486.60 L 711.10 466.60 L 711.00 465.10 L 711.60 463.70 Z" fill="#000000" fill-rule="nonzero" node-id="183" stroke="none" target-height="52.599976" target-width="32.200012" target-x="711" target-y="463.7"></path><path d="M 764.70 251.00 L 765.40 250.90 L 767.20 253.10 L 769.00 259.00 L 765.20 261.70 L 760.90 263.90 L 752.20 267.60 L 750.50 267.10 L 749.70 266.30 L 748.00 263.20 L 747.70 260.50 L 748.10 259.10 L 749.00 257.90 L 750.80 256.60 L 755.60 254.20 L 764.70 251.00 Z" fill="#000000" fill-rule="nonzero" node-id="185" stroke="none" target-height="16.700012" target-width="21.299988" target-x="747.7" target-y="250.9"></path><path d="M 205.80 213.90 L 210.00 214.90 L 214.00 217.00 L 217.30 219.80 L 219.00 222.20 L 219.40 223.60 L 219.50 225.00 L 218.90 226.90 L 217.80 228.40 L 214.80 231.00 L 213.00 231.10 L 211.60 230.80 L 208.00 228.90 L 203.70 225.30 L 201.80 222.50 L 201.30 220.90 L 201.30 219.20 L 201.90 217.60 L 203.00 216.10 L 205.80 213.90 Z" fill="#000000" fill-rule="nonzero" node-id="187" stroke="none" target-height="17.200012" target-width="18.199997" target-x="201.3" target-y="213.9"></path><path d="M 419.90 141.00 L 421.50 141.10 L 422.90 141.60 L 423.70 142.30 L 425.20 145.30 L 425.30 147.60 L 424.50 149.80 L 423.00 151.50 L 418.40 154.60 L 413.30 156.90 L 411.10 157.60 L 409.80 157.40 L 408.60 156.80 L 406.70 154.50 L 405.70 151.70 L 406.60 149.80 L 407.90 148.20 L 409.70 146.70 L 419.90 141.00 Z" fill="#000000" fill-rule="nonzero" node-id="189" stroke="none" target-height="16.600006" target-width="19.599976" target-x="405.7" target-y="141"></path><path d="M 746.70 530.40 L 748.00 530.30 L 749.30 530.80 L 750.30 531.80 L 751.80 534.30 L 758.20 547.20 L 761.50 554.60 L 763.40 560.00 L 763.00 562.50 L 761.40 562.00 L 760.00 559.70 L 748.30 536.00 L 747.00 533.00 L 746.70 530.40 Z" fill="#000000" fill-rule="nonzero" node-id="191" stroke="none" target-height="32.200012" target-width="16.700012" target-x="746.7" target-y="530.3"></path><path d="M 242.20 567.70 L 243.50 568.50 L 244.40 569.60 L 241.40 577.30 L 235.30 590.20 L 233.90 589.70 L 233.00 588.60 L 233.90 583.60 L 237.70 574.70 L 242.20 567.70 Z" fill="#000000" fill-rule="nonzero" node-id="193" stroke="none" target-height="22.5" target-width="11.399994" target-x="233" target-y="567.7"></path><path d="M 694.90 270.80 L 696.40 270.70 L 697.70 271.10 L 699.30 272.80 L 699.60 274.20 L 699.30 275.60 L 698.40 276.80 L 697.20 277.50 L 695.80 277.70 L 694.50 277.40 L 693.40 276.60 L 692.70 275.40 L 692.50 274.10 L 692.80 272.80 L 693.50 271.70 L 694.90 270.80 Z" fill="#000000" fill-rule="nonzero" node-id="195" stroke="none" target-height="7" target-width="7.0999756" target-x="692.5" target-y="270.7"></path><path d="M 329.10 217.90 L 331.50 218.90 L 335.20 221.40 L 336.30 223.30 L 335.40 226.00 L 331.40 224.10 L 329.60 222.90 L 328.10 221.20 L 328.30 219.40 L 329.10 217.90 Z" fill="#000000" fill-rule="nonzero" node-id="197" stroke="none" target-height="8.100006" target-width="8.199982" target-x="328.1" target-y="217.9"></path><path d="M 219.70 147.00 L 223.00 146.90 L 224.60 147.10 L 226.10 147.90 L 226.20 149.80 L 225.80 151.70 L 221.50 152.30 L 219.40 151.20 L 219.20 149.10 L 219.70 147.00 Z" fill="#000000" fill-rule="nonzero" node-id="199" stroke="none" target-height="5.400009" target-width="7" target-x="219.2" target-y="146.9"></path><path d="M 655.00 179.40 L 657.90 180.40 L 658.60 182.30 L 658.30 183.80 L 657.60 185.00 L 655.50 186.90 L 653.20 185.80 L 652.30 183.80 L 652.70 181.60 L 655.00 179.40 Z" fill="#000000" fill-rule="nonzero" node-id="201" stroke="none" target-height="7.5" target-width="6.299988" target-x="652.3" target-y="179.4"></path><path d="M 423.50 190.30 L 425.30 190.30 L 426.20 191.00 L 426.60 191.80 L 426.60 193.50 L 425.20 194.90 L 423.50 194.90 L 422.70 194.40 L 422.10 193.60 L 421.90 192.60 L 422.00 191.60 L 422.60 190.80 L 423.50 190.30 Z" fill="#000000" fill-rule="nonzero" node-id="203" stroke="none" target-height="4.599991" target-width="4.700012" target-x="421.9" target-y="190.3"></path><path d="M 257.90 214.30 L 259.50 213.90 L 260.40 214.20 L 261.20 214.90 L 261.70 216.50 L 261.40 217.40 L 260.80 218.20 L 259.80 218.70 L 258.90 218.70 L 257.40 217.90 L 256.90 217.10 L 256.80 216.00 L 257.10 215.10 L 257.90 214.30 Z" fill="#000000" fill-rule="nonzero" node-id="205" stroke="none" target-height="4.800003" target-width="4.9000244" target-x="256.8" target-y="213.9"></path><path d="M 483.20 147.80 L 484.70 147.90 L 485.70 149.00 L 485.70 150.40 L 484.70 151.50 L 483.10 151.50 L 482.00 150.20 L 482.20 148.70 L 483.20 147.80 Z" fill="#000000" fill-rule="nonzero" node-id="207" stroke="none" target-height="3.699997" target-width="3.7000122" target-x="482" target-y="147.8"></path></svg>