<?xml version="1.0" standalone="no"?><!DOCTYPE svg PUBLIC "-//W3C//DTD SVG 1.1//EN" "http://www.w3.org/Graphics/SVG/1.1/DTD/svg11.dtd"><svg t="1712918341810" class="icon" viewBox="0 0 1024 1024" version="1.1" xmlns="http://www.w3.org/2000/svg" p-id="2361" xmlns:xlink="http://www.w3.org/1999/xlink" width="200" height="200"><path d="M10.039216 10.039216m50.196078 0l903.529412 0q50.196078 0 50.196078 50.196078l0 903.529412q0 50.196078-50.196078 50.196078l-903.529412 0q-50.196078 0-50.196078-50.196078l0-903.529412q0-50.196078 50.196078-50.196078Z" fill="#FFFFFF" p-id="2362"></path><path d="M453.511529 438.071216l10.099451-115.511216a20.078431 20.078431 0 0 1 19.094589-18.311529l278.588235-12.589177a10.039216 10.039216 0 0 1 10.440784 11.14353L735.011137 633.072941a20.078431 20.078431 0 0 1-21.684706 17.78949l-119.587137-10.36047a20.078431 20.078431 0 0 1-18.110745-23.17051l19.957961-124.325647a20.078431 20.078431 0 0 0-17.930039-23.17051l-106.054275-10.019137a20.078431 20.078431 0 0 1-18.110745-21.744941z" fill="#00D6E1" p-id="2363"></path><path d="M252.727216 518.384941l10.099451-115.511216a20.078431 20.078431 0 0 1 19.094588-18.311529l278.588235-12.589176a10.039216 10.039216 0 0 1 10.440785 11.143529L534.226824 713.386667a20.078431 20.078431 0 0 1-21.684706 17.78949l-119.587138-10.360471a20.078431 20.078431 0 0 1-18.110745-23.17051l19.957961-124.325647a20.078431 20.078431 0 0 0-17.930039-23.170509l-106.054275-10.019138a20.078431 20.078431 0 0 1-18.110745-21.744941z" fill="#0175FF" fill-opacity=".8" p-id="2364"></path></svg>